<svg width="29" height="32" viewBox="0 0 29 32" fill="none" xmlns="http://www.w3.org/2000/svg">
<path d="M12.3841 20.3826C14.3898 22.9755 13.9605 28.705 14.2536 31.9541L14.5534 32L14.6033 31.7315C15.1281 28.705 14.5511 21.1674 17.1202 19.3501C19.5279 17.6498 25.9698 17.776 29 17.3515C25.6019 17.0968 18.324 17.4295 16.1207 14.6233C13.956 11.8606 15.1053 3.66213 14.1854 0C14.1672 0.0711315 14.1491 0.142263 14.1332 0.213395C13.404 3.59788 14.299 13.359 11.5618 15.174C8.76563 17.028 3.32999 16.7824 0 17.1083C3.59576 17.4456 9.95816 17.2437 12.3841 20.3803V20.3826Z" fill="#FFE44E"/>
</svg>
