<svg width="37" height="40" viewBox="0 0 37 40" fill="none" xmlns="http://www.w3.org/2000/svg">
<path d="M15.8004 25.4783C18.3594 28.7193 17.8117 35.8813 18.1856 39.9426L18.5681 40L18.6319 39.6644C19.3013 35.8813 18.5652 26.4592 21.843 24.1876C24.915 22.0622 33.1339 22.22 37 21.6894C32.6644 21.371 23.379 21.7869 20.5678 18.2791C17.8059 14.8258 19.2723 4.57766 18.0986 0C18.0754 0.0889144 18.0522 0.177829 18.032 0.266743C17.1017 4.49735 18.2435 16.6987 14.7513 18.9674C11.1837 21.285 4.24861 20.9781 0 21.3853C4.58769 21.807 12.7052 21.5546 15.8004 25.4754V25.4783Z" fill="white"/>
</svg>
